# xmcd
#
# Track frame offsets:
#	150
#	15548
#	25345
#	38464
#	53257
#	64657
#	74656
#	88051
#	107684
#	123551
#	145927
#	157171
#	172335
#	184110
#	195473
#
# Disc length: 2792 seconds
#
# Revision: 0
# Processed by: cddbd v1.5.2PL0 Copyright (c) Steve Scherf et al.
# Submitted via: dBpowerAMP V4.0
#
DISCID=cf0ae60f
DTITLE=Various Artist - Superstars of Country - Live
DYEAR=2006
DGENRE=Country
TTITLE0=Dan Seals - Bop
TTITLE1=Loretta Lynn and Conway Twitty - Louisiana Woman, Mississippi Man
TTITLE2=Kathy Mattea - Eighteen Wheels and a Dozen Roses
TTITLE3=Ricky Van Shelton - I'll Leave this World Loving You
TTITLE4=Conway Twitty - Hello Darlin'
TTITLE5=Ricky Skaggs - Uncle Pen
TTITLE6=John Anderson - Swingin'
TTITLE7=Bellamy Brothers - If I Said You Havve a Beatiful Body, Would You Hold It Against Me
TTITLE8=Ray Price - For the Good Times
TTITLE9=Willie Nelson - Loving Her Was Easier (Than Anything I'll Ever Do Again)
TTITLE10=The Statler Brothers - Hello Mary Lou
TTITLE11=Randy Travis - On the Other Hand
TTITLE12=Tammy Wynnette - Stand By Your Man
TTITLE13=The Kendalls - Heaven's Just a Sin Away
TTITLE14=Lee Greenwood - God Bless The USA
EXTD=
EXTT0=
EXTT1=
EXTT2=
EXTT3=
EXTT4=
EXTT5=
EXTT6=
EXTT7=
EXTT8=
EXTT9=
EXTT10=
EXTT11=
EXTT12=
EXTT13=
EXTT14=
PLAYORDER=
